<svg width="28" height="32" viewBox="0 0 28 32" fill="none" xmlns="http://www.w3.org/2000/svg">
<path fill-rule="evenodd" clip-rule="evenodd" d="M18.6142 0.987212C18.2303 1.06082 17.633 1.22908 17.281 1.35527C16.9291 1.48147 16.1825 1.80746 15.6278 2.08088C15.0732 2.3543 14.1133 2.91165 13.4947 3.32177C12.8761 3.7319 11.9162 4.4575 11.3616 4.95176C10.807 5.43549 10.039 6.18213 9.65508 6.61329C9.27112 7.03393 8.58852 7.88573 8.11923 8.49566C7.6606 9.10559 6.95667 10.1467 6.56204 10.8092C6.15675 11.4717 5.55947 12.5864 5.21817 13.2805C4.88754 13.9745 4.39691 15.0892 4.14094 15.7517C3.8743 16.4142 3.54366 17.4343 3.39434 18.0127C3.1917 18.8329 3.11704 19.4323 3.07437 20.7468C3.03171 21.851 3.06371 22.7028 3.14903 23.2181C3.22369 23.6493 3.39434 24.3118 3.52233 24.6904C3.65032 25.0689 3.89563 25.6368 4.05561 25.9523C4.2156 26.2678 4.5569 26.7936 4.80221 27.109C5.04752 27.4245 5.48481 27.8767 5.77278 28.1081C6.06076 28.3394 6.65803 28.7285 7.09532 28.9704C7.53262 29.2228 8.62051 29.7065 9.4951 30.043C10.3803 30.39 11.6709 30.8422 12.3748 31.0526C13.0788 31.2629 14.2306 31.5258 14.9346 31.652C15.9905 31.8307 16.5131 31.8518 17.921 31.8097C19.1688 31.7676 19.8621 31.7045 20.4807 31.5363C20.95 31.4206 21.7393 31.1156 22.2299 30.8738C22.8058 30.5898 23.3498 30.2113 23.7337 29.8432C24.0644 29.5172 24.4697 28.9914 24.6403 28.6339C24.907 28.0975 24.9603 27.8557 24.9923 27.0039C25.0243 26.2047 24.9816 25.8051 24.7683 25.0058C24.6297 24.459 24.3097 23.5441 24.0644 22.9868C23.8297 22.4189 23.3818 21.5145 23.0725 20.9887C22.7632 20.4524 22.1552 19.5375 21.7073 18.9591C21.27 18.3807 20.5234 17.5289 20.0541 17.0557C19.5848 16.593 18.8062 15.9095 18.3263 15.5309C17.857 15.1628 17.3877 14.8579 17.2917 14.8579C17.1957 14.8579 17.121 14.8789 17.121 14.9104C17.121 14.942 17.4197 15.247 17.7716 15.594C18.1343 15.941 18.6889 16.5299 18.9982 16.9085C19.3075 17.2871 19.5741 17.6341 19.5741 17.6972C19.5741 17.7603 19.0835 17.2871 18.4756 16.6456C17.8676 16.0041 17.1104 15.289 16.7904 15.0471C16.4704 14.8053 15.9265 14.4372 15.5745 14.2269C15.2226 14.0271 14.5506 13.7326 14.0813 13.5749C13.4094 13.3646 13.0041 13.3015 12.1615 13.3015C11.4576 13.291 10.8923 13.3541 10.5083 13.4697C10.1884 13.5644 9.69774 13.7852 9.42044 13.964L8.90849 14.2795C8.73784 13.7537 8.69517 13.4277 8.69517 13.2279C8.69517 13.0281 8.79116 12.5548 8.89782 12.1763C9.01514 11.7977 9.34578 11.1352 9.64442 10.704C9.93239 10.2729 10.4977 9.5683 10.8923 9.13714C11.2976 8.7165 12.0122 8.07502 12.4815 7.72799C12.9508 7.38096 13.7507 6.89722 14.2733 6.64484C14.7853 6.39245 15.6172 6.05594 16.1398 5.8982C16.9824 5.64582 17.2277 5.61427 18.8275 5.61427C20.1927 5.60375 20.7794 5.64581 21.4406 5.80356C21.9099 5.90872 22.6778 6.12955 23.1471 6.29781C23.6164 6.46607 24.235 6.78155 24.523 7.00238C24.8216 7.2127 25.2056 7.59128 25.3763 7.83315C25.5576 8.07502 25.8135 8.4536 25.9522 8.67443C26.0802 8.89527 26.3362 9.15817 26.5068 9.26333C26.6881 9.35798 26.9548 9.4421 27.1041 9.4421C27.2641 9.4421 27.4987 9.31591 27.6907 9.12662C27.936 8.87424 28 8.7165 28 8.36947C28 8.0645 27.8933 7.73851 27.6907 7.39148C27.5307 7.10754 27.0828 6.59226 26.7095 6.25574C26.3362 5.91923 25.6642 5.46704 25.2269 5.24621C24.7896 5.01485 24.1177 4.74144 23.7337 4.62576C23.3498 4.51008 22.5819 4.36286 22.0272 4.28925C21.3766 4.1946 20.5874 4.17357 19.8408 4.21563C19.1902 4.2577 18.2623 4.38389 17.761 4.48905C17.2597 4.60473 16.4918 4.82556 16.0545 4.97279C15.6172 5.13053 14.9452 5.41446 14.5613 5.60375C14.1773 5.79304 13.4307 6.23471 12.9081 6.58174C12.3855 6.92877 11.5429 7.58077 11.0523 8.04347C10.5617 8.49566 9.81507 9.31591 9.39911 9.86274C8.97248 10.4096 8.41787 11.2403 8.16189 11.7031C7.7566 12.4076 7.67127 12.5023 7.64994 12.2814C7.62861 12.1342 7.76726 11.5663 7.94858 11.0195C8.12989 10.4727 8.47119 9.66294 8.70584 9.23178C8.94048 8.80063 9.38844 8.11708 9.70841 7.70696C10.0177 7.30735 10.6257 6.64484 11.0523 6.24523C11.4896 5.8351 12.2468 5.24621 12.7481 4.93072C13.2494 4.61524 14.0493 4.17357 14.5399 3.95273C15.0199 3.7319 15.8838 3.41642 16.4491 3.24816C17.025 3.09042 17.825 2.89061 18.2409 2.82752C18.6569 2.75391 19.5421 2.65926 20.2141 2.60668C21.1633 2.53307 21.4833 2.46997 21.6326 2.32275C21.7393 2.21759 21.8246 1.99675 21.8246 1.81798C21.8246 1.62869 21.7286 1.41837 21.5793 1.28166C21.4406 1.15547 21.2273 0.997728 21.0887 0.934632C20.9607 0.871536 20.5021 0.818956 20.0754 0.829472C19.6595 0.829472 18.9982 0.903084 18.6142 0.987212ZM10.9136 16.4353C10.6257 16.5194 10.2417 16.7507 10.0497 16.94C9.82574 17.1504 9.65509 17.4658 9.56977 17.8023C9.48444 18.1073 9.46311 18.5069 9.50577 18.7488C9.53777 18.9801 9.67642 19.3798 9.79375 19.6427C9.92173 19.9056 10.2844 20.3788 10.615 20.7048C10.9883 21.0833 11.5003 21.4409 12.0549 21.7143C12.5242 21.9457 13.2708 22.2717 13.708 22.4189C14.1453 22.5766 15.2972 22.9447 16.2678 23.2391C17.473 23.6072 18.2303 23.7755 18.6462 23.786C19.2009 23.7965 19.2968 23.7649 19.5315 23.5126C19.6808 23.3338 19.7875 23.0814 19.7875 22.9026C19.7875 22.7344 19.7128 22.4084 19.6168 22.198C19.5315 21.9772 19.2435 21.5145 18.9982 21.1675C18.7422 20.8204 17.921 19.9161 17.1637 19.1484C16.3211 18.2966 15.4999 17.592 15.0412 17.2976C14.6253 17.0452 14.0067 16.7297 13.6547 16.593C13.2814 16.4563 12.6841 16.3406 12.2149 16.3196C11.6922 16.288 11.2443 16.3301 10.903 16.4353H10.9136Z" fill="#081735"/>
<path d="M2.61575 15.4047C2.24245 15.8569 1.7625 16.5299 1.53852 16.9085C1.31454 17.2871 1.00524 17.918 0.845253 18.3282C0.685268 18.7383 0.471955 19.3903 0.365299 19.8004C0.258642 20.2105 0.119989 21.0308 0.0559947 21.6407C-0.0186649 22.3979 -0.0186649 23.0709 0.0559947 23.7965C0.119989 24.3749 0.258642 25.2056 0.375964 25.6368C0.482621 26.068 0.706599 26.7305 0.866584 27.109C1.03723 27.4876 1.27188 27.9714 1.41053 28.1922C1.54919 28.4025 1.83716 28.7811 2.05047 29.0124C2.27445 29.2543 2.74374 29.6539 3.09571 29.8958C3.44767 30.1482 4.02362 30.4847 4.37558 30.6635C4.72755 30.8317 5.48481 31.1262 6.05009 31.3049C6.62604 31.4837 7.36197 31.6625 7.6926 31.7151C8.11923 31.7676 8.31121 31.7571 8.4072 31.652C8.49253 31.5608 8.49964 31.4872 8.42853 31.4311C8.36454 31.3785 7.88458 31.1157 7.36197 30.8422C6.82868 30.5688 6.05009 30.1061 5.6128 29.8011C5.17551 29.5067 4.54623 29.0019 4.22626 28.6864C3.89563 28.371 3.42634 27.8241 3.1917 27.4771C2.94639 27.1301 2.65841 26.6569 2.54109 26.4255C2.4131 26.1941 2.22112 25.6999 2.1038 25.3213C1.98648 24.9427 1.82649 24.2171 1.7625 23.6913C1.66651 22.9657 1.65584 22.482 1.75183 21.5881C1.82649 20.9572 1.97581 19.9792 2.1038 19.4323C2.22112 18.8855 2.48776 17.9601 2.69041 17.3817C2.89306 16.8033 3.21303 16.0462 3.38368 15.6991C3.55433 15.3521 3.68232 14.9735 3.66099 14.8579C3.63965 14.7422 3.55433 14.637 3.44767 14.616C3.34102 14.595 3.04238 14.8684 2.61575 15.4047Z" fill="#081735"/>
</svg>
